# WaveFront *.obj file (generated by Autodesk ATF)

mtllib pen_to_spring_adapter.mtl

g pen to spring adapter

v -0.468609 -0.500000 0.725321
v -0.460205 -0.500000 0.813323
v -0.435300 -0.500000 0.898144
v -0.394791 -0.500000 0.976719
v -0.340145 -0.500000 1.046208
v -0.273335 -0.500000 1.104099
v -0.196777 -0.500000 1.148300
v -0.113236 -0.500000 1.177213
v -0.025734 -0.500000 1.189794
v 0.062568 -0.500000 1.185588
v 0.148478 -0.500000 1.164746
v 0.228891 -0.500000 1.128023
v 0.300902 -0.500000 1.076744
v 0.361906 -0.500000 1.012765
v 0.409700 -0.500000 0.938396
v 0.442556 -0.500000 0.856327
v 0.459286 -0.500000 0.769522
v 0.459286 -0.500000 0.681120
v 0.442556 -0.500000 0.594315
v 0.409700 -0.500000 0.512246
v 0.361906 -0.500000 0.437877
v 0.300902 -0.500000 0.373897
v 0.228891 -0.500000 0.322619
v 0.148478 -0.500000 0.285896
v 0.062568 -0.500000 0.265054
v -0.025734 -0.500000 0.260848
v -0.113236 -0.500000 0.273429
v -0.196777 -0.500000 0.302342
v -0.273335 -0.500000 0.346543
v -0.340145 -0.500000 0.404434
v -0.394791 -0.500000 0.473923
v -0.435300 -0.500000 0.552498
v -0.460205 -0.500000 0.637319
v -0.468609 0.000000 0.725321
v -0.460205 0.000000 0.637319
v -0.435300 0.000000 0.552498
v -0.394791 0.000000 0.473923
v -0.340145 0.000000 0.404434
v -0.273335 0.000000 0.346543
v -0.196777 0.000000 0.302342
v -0.113236 0.000000 0.273429
v -0.025734 0.000000 0.260848
v 0.062568 0.000000 0.265054
v 0.148478 0.000000 0.285896
v 0.228891 0.000000 0.322619
v 0.300902 0.000000 0.373897
v 0.361906 0.000000 0.437877
v 0.409700 0.000000 0.512246
v 0.442556 0.000000 0.594315
v 0.459286 0.000000 0.681120
v 0.459286 0.000000 0.769522
v 0.442556 0.000000 0.856327
v 0.409700 0.000000 0.938396
v 0.361906 0.000000 1.012765
v 0.300902 0.000000 1.076744
v 0.228891 0.000000 1.128023
v 0.148478 0.000000 1.164746
v 0.062568 0.000000 1.185588
v -0.025734 0.000000 1.189794
v -0.113236 0.000000 1.177213
v -0.196777 0.000000 1.148300
v -0.273335 0.000000 1.104099
v -0.340145 0.000000 1.046208
v -0.394791 0.000000 0.976719
v -0.435300 0.000000 0.898144
v -0.460205 0.000000 0.813323
v -0.003609 0.800000 1.225321
v 0.088266 0.800000 1.216807
v 0.177012 0.800000 1.191557
v 0.259608 0.800000 1.150429
v 0.333239 0.800000 1.094825
v 0.395400 0.800000 1.026638
v 0.443973 0.800000 0.948190
v 0.477304 0.800000 0.862152
v 0.494259 0.800000 0.771455
v 0.494259 0.800000 0.679187
v 0.477304 0.800000 0.588489
v 0.443973 0.800000 0.502452
v 0.395400 0.800000 0.424004
v 0.333239 0.800000 0.355816
v 0.259608 0.800000 0.300212
v 0.177012 0.800000 0.259085
v 0.088266 0.800000 0.233834
v -0.003609 0.800000 0.225321
v -0.095483 0.800000 0.233834
v -0.184229 0.800000 0.259085
v -0.266825 0.800000 0.300212
v -0.340456 0.800000 0.355816
v -0.402617 0.800000 0.424004
v -0.451190 0.800000 0.502452
v -0.484521 0.800000 0.588489
v -0.501476 0.800000 0.679187
v -0.501476 0.800000 0.771455
v -0.484521 0.800000 0.862152
v -0.451190 0.800000 0.948190
v -0.402617 0.800000 1.026638
v -0.340456 0.800000 1.094825
v -0.266825 0.800000 1.150429
v -0.184229 0.800000 1.191557
v -0.095483 0.800000 1.216807
v -0.003609 0.100000 1.225321
v -0.095483 0.100000 1.216807
v -0.184229 0.100000 1.191557
v -0.266825 0.100000 1.150429
v -0.340456 0.100000 1.094825
v -0.402617 0.100000 1.026638
v -0.451190 0.100000 0.948190
v -0.484521 0.100000 0.862152
v -0.501476 0.100000 0.771455
v -0.501476 0.100000 0.679187
v -0.484521 0.100000 0.588489
v -0.451190 0.100000 0.502452
v -0.402617 0.100000 0.424004
v -0.340456 0.100000 0.355816
v -0.266825 0.100000 0.300212
v -0.184229 0.100000 0.259085
v -0.095483 0.100000 0.233834
v -0.003609 0.100000 0.225321
v 0.088266 0.100000 0.233834
v 0.177012 0.100000 0.259085
v 0.259608 0.100000 0.300212
v 0.333239 0.100000 0.355816
v 0.395400 0.100000 0.424004
v 0.443973 0.100000 0.502452
v 0.477304 0.100000 0.588489
v 0.494259 0.100000 0.679187
v 0.494259 0.100000 0.771455
v 0.477304 0.100000 0.862152
v 0.443973 0.100000 0.948190
v 0.395400 0.100000 1.026638
v 0.333239 0.100000 1.094825
v 0.259608 0.100000 1.150429
v 0.177012 0.100000 1.191557
v 0.088266 0.100000 1.216807
v -0.624166 0.800000 0.725321
v -0.615702 0.800000 0.827461
v -0.590542 0.800000 0.926815
v -0.549372 0.800000 1.020673
v -0.493315 0.800000 1.106475
v -0.423901 0.800000 1.181880
v -0.343021 0.800000 1.244831
v -0.252884 0.800000 1.293611
v -0.155946 0.800000 1.326889
v -0.054854 0.800000 1.343759
v 0.047637 0.800000 1.343759
v 0.148729 0.800000 1.326889
v 0.245666 0.800000 1.293611
v 0.335804 0.800000 1.244831
v 0.416683 0.800000 1.181880
v 0.486098 0.800000 1.106475
v 0.542155 0.800000 1.020673
v 0.583325 0.800000 0.926815
v 0.608485 0.800000 0.827461
v 0.616949 0.800000 0.725321
v 0.608485 0.800000 0.623181
v 0.583325 0.800000 0.523826
v 0.542155 0.800000 0.429968
v 0.486098 0.800000 0.344167
v 0.416683 0.800000 0.268762
v 0.335804 0.800000 0.205811
v 0.245666 0.800000 0.157031
v 0.148729 0.800000 0.123753
v 0.047637 0.800000 0.106883
v -0.054854 0.800000 0.106883
v -0.155946 0.800000 0.123753
v -0.252884 0.800000 0.157031
v -0.343021 0.800000 0.205811
v -0.423901 0.800000 0.268762
v -0.493315 0.800000 0.344167
v -0.549372 0.800000 0.429968
v -0.590542 0.800000 0.523826
v -0.615702 0.800000 0.623181
v -0.624166 0.000000 0.725321
v -0.615702 0.000000 0.827461
v -0.590542 0.000000 0.926815
v -0.549372 0.000000 1.020673
v -0.493315 0.000000 1.106475
v -0.423901 0.000000 1.181880
v -0.343021 0.000000 1.244831
v -0.252884 0.000000 1.293611
v -0.155946 0.000000 1.326889
v -0.054854 0.000000 1.343759
v 0.047637 0.000000 1.343759
v 0.148729 0.000000 1.326889
v 0.245666 0.000000 1.293611
v 0.335804 0.000000 1.244831
v 0.416683 0.000000 1.181880
v 0.486098 0.000000 1.106475
v 0.542155 0.000000 1.020673
v 0.583325 0.000000 0.926815
v 0.608485 0.000000 0.827461
v 0.616949 0.000000 0.725321
v 0.608485 0.000000 0.623181
v 0.583325 0.000000 0.523826
v 0.542155 0.000000 0.429968
v 0.486098 0.000000 0.344167
v 0.416683 0.000000 0.268762
v 0.335804 0.000000 0.205811
v 0.245666 0.000000 0.157031
v 0.148729 0.000000 0.123753
v 0.047637 0.000000 0.106883
v -0.054854 0.000000 0.106883
v -0.155946 0.000000 0.123753
v -0.252884 0.000000 0.157031
v -0.343021 0.000000 0.205811
v -0.423901 0.000000 0.268762
v -0.493315 0.000000 0.344167
v -0.549372 0.000000 0.429968
v -0.590542 0.000000 0.523826
v -0.615702 0.000000 0.623181
vt -0.500000 1.372305 0.000000
vt -0.000000 1.372305 0.000000
vt -0.500000 1.460841 0.000000
vt 0.000000 1.460841 0.000000
vt -0.500000 -1.460841 0.000000
vt 0.000000 -1.460841 0.000000
vt -0.500000 -1.372305 0.000000
vt 0.000000 -1.372305 0.000000
vt -0.500000 -1.283769 0.000000
vt 0.000000 -1.283769 0.000000
vt -0.500000 -1.195233 0.000000
vt 0.000000 -1.195233 0.000000
vt -0.500000 -1.106697 0.000000
vt 0.000000 -1.106697 0.000000
vt -0.500000 -1.018162 0.000000
vt 0.000000 -1.018162 0.000000
vt -0.500000 -0.929626 0.000000
vt -0.000000 -0.929626 0.000000
vt -0.500000 -0.841090 0.000000
vt 0.000000 -0.841090 0.000000
vt -0.500000 -0.752554 0.000000
vt 0.000000 -0.752554 0.000000
vt -0.500000 -0.664018 0.000000
vt -0.000000 -0.664018 0.000000
vt -0.500000 -0.575483 0.000000
vt -0.000000 -0.575483 0.000000
vt -0.500000 -0.486947 0.000000
vt -0.000000 -0.486947 0.000000
vt -0.500000 -0.398411 0.000000
vt -0.000000 -0.398411 0.000000
vt -0.500000 -0.309875 0.000000
vt -0.000000 -0.309875 0.000000
vt -0.500000 -0.221339 0.000000
vt -0.000000 -0.221339 0.000000
vt -0.500000 -0.132804 0.000000
vt -0.000000 -0.132804 0.000000
vt -0.500000 -0.044268 0.000000
vt -0.000000 -0.044268 0.000000
vt -0.500000 0.044268 0.000000
vt -0.000000 0.044268 0.000000
vt -0.500000 0.132804 0.000000
vt -0.000000 0.132804 0.000000
vt -0.500000 0.221339 0.000000
vt -0.000000 0.221339 0.000000
vt -0.500000 0.309875 0.000000
vt -0.000000 0.309875 0.000000
vt -0.500000 0.398411 0.000000
vt -0.000000 0.398411 0.000000
vt -0.500000 0.486947 0.000000
vt -0.000000 0.486947 0.000000
vt -0.500000 0.575483 0.000000
vt -0.000000 0.575483 0.000000
vt -0.500000 0.664018 0.000000
vt -0.000000 0.664018 0.000000
vt -0.500000 0.752554 0.000000
vt -0.000000 0.752554 0.000000
vt -0.500000 0.841090 0.000000
vt -0.000000 0.841090 0.000000
vt -0.500000 0.929626 0.000000
vt -0.000000 0.929626 0.000000
vt -0.500000 1.018162 0.000000
vt -0.000000 1.018162 0.000000
vt -0.500000 1.106697 0.000000
vt -0.000000 1.106697 0.000000
vt -0.500000 1.195233 0.000000
vt -0.000000 1.195233 0.000000
vt -0.500000 1.283769 0.000000
vt -0.000000 1.283769 0.000000
vt -0.456597 0.088002 0.000000
vt -0.465000 -0.000000 0.000000
vt 0.304510 -0.351424 0.000000
vt -0.456597 -0.088002 0.000000
vt -0.431691 -0.172823 0.000000
vt -0.391183 -0.251398 0.000000
vt -0.336536 -0.320887 0.000000
vt -0.269726 -0.378778 0.000000
vt 0.232500 -0.402702 0.000000
vt -0.193168 -0.422979 0.000000
vt 0.152087 -0.439425 0.000000
vt -0.109628 -0.451892 0.000000
vt 0.066176 -0.460267 0.000000
vt -0.022126 -0.464473 0.000000
vt 0.365515 -0.287444 0.000000
vt -0.431691 0.172823 0.000000
vt -0.391183 0.251398 0.000000
vt -0.336536 0.320887 0.000000
vt -0.269726 0.378778 0.000000
vt -0.193168 0.422979 0.000000
vt -0.109628 0.451892 0.000000
vt -0.022126 0.464473 0.000000
vt 0.066176 0.460267 0.000000
vt 0.152087 0.439425 0.000000
vt 0.232500 0.402702 0.000000
vt 0.304510 0.351424 0.000000
vt 0.365515 0.287444 0.000000
vt 0.413308 -0.213075 0.000000
vt 0.413308 0.213075 0.000000
vt 0.446164 -0.131006 0.000000
vt 0.446164 0.131006 0.000000
vt 0.462894 -0.044201 0.000000
vt 0.462894 0.044201 0.000000
vt -0.350000 -0.092400 0.000000
vt 0.350000 -0.092400 0.000000
vt -0.350000 0.000000 0.000000
vt 0.350000 0.000000 0.000000
vt -0.350000 0.092400 0.000000
vt 0.350000 0.092400 0.000000
vt -0.350000 0.184800 0.000000
vt 0.350000 0.184800 0.000000
vt -0.350000 0.277199 0.000000
vt 0.350000 0.277199 0.000000
vt -0.350000 0.369599 0.000000
vt 0.350000 0.369599 0.000000
vt -0.350000 0.461999 0.000000
vt 0.350000 0.461999 0.000000
vt -0.350000 0.554399 0.000000
vt 0.350000 0.554399 0.000000
vt -0.350000 0.646798 0.000000
vt 0.350000 0.646798 0.000000
vt -0.350000 0.739198 0.000000
vt 0.350000 0.739198 0.000000
vt -0.350000 0.831598 0.000000
vt 0.350000 0.831598 0.000000
vt -0.350000 0.923998 0.000000
vt 0.350000 0.923998 0.000000
vt -0.350000 1.016398 0.000000
vt 0.350000 1.016398 0.000000
vt -0.350000 1.108797 0.000000
vt 0.350000 1.108797 0.000000
vt -0.350000 1.201197 0.000000
vt 0.350000 1.201197 0.000000
vt -0.350000 1.293597 0.000000
vt 0.350000 1.293597 0.000000
vt -0.350000 1.385997 0.000000
vt 0.350000 1.385997 0.000000
vt -0.350000 1.478397 0.000000
vt 0.350000 1.478397 0.000000
vt -0.350000 1.570796 0.000000
vt 0.350000 1.570796 0.000000
vt -0.350000 -1.570796 0.000000
vt 0.350000 -1.570796 0.000000
vt -0.350000 -1.478397 0.000000
vt 0.350000 -1.478397 0.000000
vt -0.350000 -1.385997 0.000000
vt 0.350000 -1.385997 0.000000
vt -0.350000 -1.293597 0.000000
vt 0.350000 -1.293597 0.000000
vt -0.350000 -1.201197 0.000000
vt 0.350000 -1.201197 0.000000
vt -0.350000 -1.108797 0.000000
vt 0.350000 -1.108797 0.000000
vt -0.350000 -1.016398 0.000000
vt 0.350000 -1.016398 0.000000
vt -0.350000 -0.923998 0.000000
vt 0.350000 -0.923998 0.000000
vt -0.350000 -0.831598 0.000000
vt 0.350000 -0.831598 0.000000
vt -0.350000 -0.739198 0.000000
vt 0.350000 -0.739198 0.000000
vt -0.350000 -0.646798 0.000000
vt 0.350000 -0.646798 0.000000
vt -0.350000 -0.554399 0.000000
vt 0.350000 -0.554399 0.000000
vt -0.350000 -0.461999 0.000000
vt 0.350000 -0.461999 0.000000
vt -0.350000 -0.369599 0.000000
vt 0.350000 -0.369599 0.000000
vt -0.350000 -0.277199 0.000000
vt 0.350000 -0.277199 0.000000
vt -0.350000 -0.184800 0.000000
vt 0.350000 -0.184800 0.000000
vt -0.491487 -0.091875 0.000000
vt 0.491487 -0.091875 0.000000
vt -0.500000 0.000000 0.000000
vt 0.500000 0.000000 0.000000
vt -0.491487 0.091875 0.000000
vt 0.491487 0.091875 0.000000
vt -0.466236 0.180621 0.000000
vt 0.466236 0.180621 0.000000
vt -0.425109 0.263216 0.000000
vt 0.425109 0.263216 0.000000
vt -0.369504 0.336848 0.000000
vt 0.369504 0.336848 0.000000
vt -0.301317 0.399009 0.000000
vt 0.301317 0.399009 0.000000
vt -0.222869 0.447582 0.000000
vt 0.222869 0.447582 0.000000
vt -0.136831 0.480913 0.000000
vt 0.136831 0.480913 0.000000
vt -0.046134 0.497867 0.000000
vt 0.046134 0.497867 0.000000
vt 0.466236 -0.180621 0.000000
vt -0.466236 -0.180621 0.000000
vt 0.425109 -0.263216 0.000000
vt -0.425109 -0.263216 0.000000
vt 0.369504 -0.336848 0.000000
vt -0.369504 -0.336848 0.000000
vt 0.301317 -0.399009 0.000000
vt -0.301317 -0.399009 0.000000
vt 0.222869 -0.447582 0.000000
vt -0.222869 -0.447582 0.000000
vt 0.136831 -0.480913 0.000000
vt -0.136831 -0.480913 0.000000
vt 0.046134 -0.497867 0.000000
vt -0.046134 -0.497867 0.000000
vt -0.233848 -0.033133 0.000000
vt -0.360799 -0.073763 0.000000
vt -0.242361 -0.125008 0.000000
vt -0.360799 -0.176253 0.000000
vt -0.233848 -0.216883 0.000000
vt -0.343929 -0.277346 0.000000
vt -0.208597 -0.305629 0.000000
vt -0.310651 -0.374283 0.000000
vt -0.167470 -0.388224 0.000000
vt -0.261871 -0.464421 0.000000
vt -0.111866 -0.461856 0.000000
vt -0.198920 -0.545300 0.000000
vt -0.123515 -0.614715 0.000000
vt -0.343929 0.027330 0.000000
vt -0.208597 0.055613 0.000000
vt -0.310651 0.124267 0.000000
vt -0.167470 0.138208 0.000000
vt -0.261871 0.214405 0.000000
vt -0.111866 0.211840 0.000000
vt -0.198920 0.295284 0.000000
vt -0.123515 0.364699 0.000000
vt -0.043678 0.274001 0.000000
vt -0.037714 0.420756 0.000000
vt 0.034770 0.322574 0.000000
vt 0.056144 0.461926 0.000000
vt 0.120807 0.355905 0.000000
vt 0.155498 0.487086 0.000000
vt 0.211505 0.372859 0.000000
vt 0.257639 0.495549 0.000000
vt 0.303773 0.372859 0.000000
vt 0.359779 0.487086 0.000000
vt 0.394470 0.355905 0.000000
vt 0.459133 0.461926 0.000000
vt 0.480508 0.322574 0.000000
vt 0.552991 0.420756 0.000000
vt 0.558956 0.274001 0.000000
vt 0.638793 0.364699 0.000000
vt 0.627143 0.211840 0.000000
vt 0.714198 0.295284 0.000000
vt 0.777149 0.214405 0.000000
vt 0.682747 0.138208 0.000000
vt 0.825929 0.124267 0.000000
vt 0.723875 0.055613 0.000000
vt 0.859207 0.027330 0.000000
vt 0.749125 -0.033133 0.000000
vt 0.876077 -0.073763 0.000000
vt 0.757639 -0.125008 0.000000
vt 0.876077 -0.176253 0.000000
vt 0.749125 -0.216883 0.000000
vt 0.859207 -0.277346 0.000000
vt 0.723875 -0.305629 0.000000
vt 0.825929 -0.374283 0.000000
vt 0.682747 -0.388224 0.000000
vt 0.777149 -0.464421 0.000000
vt 0.627143 -0.461856 0.000000
vt 0.714198 -0.545300 0.000000
vt 0.638793 -0.614715 0.000000
vt 0.558956 -0.524017 0.000000
vt 0.552991 -0.670772 0.000000
vt 0.480508 -0.572590 0.000000
vt 0.459133 -0.711942 0.000000
vt 0.394470 -0.605921 0.000000
vt 0.359779 -0.737102 0.000000
vt 0.303773 -0.622875 0.000000
vt 0.257639 -0.745565 0.000000
vt 0.211505 -0.622875 0.000000
vt 0.155498 -0.737102 0.000000
vt 0.120807 -0.605921 0.000000
vt 0.056144 -0.711942 0.000000
vt 0.034770 -0.572590 0.000000
vt -0.037714 -0.670772 0.000000
vt -0.043678 -0.524017 0.000000
vt -0.800000 1.846931 0.000000
vt -0.000000 1.846931 0.000000
vt -0.800000 1.949538 0.000000
vt -0.000000 1.949538 0.000000
vt -0.800000 -1.949538 0.000000
vt -0.000000 -1.949538 0.000000
vt -0.800000 -1.846931 0.000000
vt -0.000000 -1.846931 0.000000
vt -0.800000 -1.744323 0.000000
vt -0.000000 -1.744323 0.000000
vt -0.800000 -1.641716 0.000000
vt -0.000000 -1.641716 0.000000
vt -0.800000 -1.539109 0.000000
vt -0.000000 -1.539109 0.000000
vt -0.800000 -1.436502 0.000000
vt -0.000000 -1.436502 0.000000
vt -0.800000 -1.333894 0.000000
vt -0.000000 -1.333894 0.000000
vt -0.800000 -1.231287 0.000000
vt -0.000000 -1.231287 0.000000
vt -0.800000 -1.128680 0.000000
vt -0.000000 -1.128680 0.000000
vt -0.800000 -1.026073 0.000000
vt -0.000000 -1.026073 0.000000
vt -0.800000 -0.923465 0.000000
vt -0.000000 -0.923465 0.000000
vt -0.800000 -0.820858 0.000000
vt -0.000000 -0.820858 0.000000
vt -0.800000 -0.718251 0.000000
vt -0.000000 -0.718251 0.000000
vt -0.800000 -0.615644 0.000000
vt -0.000000 -0.615644 0.000000
vt -0.800000 -0.513036 0.000000
vt -0.000000 -0.513036 0.000000
vt -0.800000 -0.410429 0.000000
vt -0.000000 -0.410429 0.000000
vt -0.800000 -0.307822 0.000000
vt -0.000000 -0.307822 0.000000
vt -0.800000 -0.205215 0.000000
vt -0.000000 -0.205215 0.000000
vt -0.800000 -0.102607 0.000000
vt -0.000000 -0.102607 0.000000
vt -0.800000 0.000000 0.000000
vt -0.000000 0.000000 0.000000
vt -0.800000 0.102607 0.000000
vt -0.000000 0.102607 0.000000
vt -0.800000 0.205215 0.000000
vt -0.000000 0.205215 0.000000
vt -0.800000 0.307822 0.000000
vt -0.000000 0.307822 0.000000
vt -0.800000 0.410429 0.000000
vt -0.000000 0.410429 0.000000
vt -0.800000 0.513036 0.000000
vt -0.000000 0.513036 0.000000
vt -0.800000 0.615644 0.000000
vt -0.000000 0.615644 0.000000
vt -0.800000 0.718251 0.000000
vt -0.000000 0.718251 0.000000
vt -0.800000 0.820858 0.000000
vt -0.000000 0.820858 0.000000
vt -0.800000 0.923465 0.000000
vt -0.000000 0.923465 0.000000
vt -0.800000 1.026073 0.000000
vt -0.000000 1.026073 0.000000
vt -0.800000 1.128680 0.000000
vt -0.000000 1.128680 0.000000
vt -0.800000 1.231287 0.000000
vt -0.000000 1.231287 0.000000
vt -0.800000 1.333894 0.000000
vt -0.000000 1.333894 0.000000
vt -0.800000 1.436502 0.000000
vt -0.000000 1.436502 0.000000
vt -0.800000 1.539109 0.000000
vt -0.000000 1.539109 0.000000
vt -0.800000 1.641716 0.000000
vt -0.000000 1.641716 0.000000
vt -0.800000 1.744323 0.000000
vt -0.000000 1.744323 0.000000
vt 0.456597 -0.088002 0.000000
vt 0.612094 -0.102140 0.000000
vt 0.465000 0.000000 0.000000
vt 0.620557 -0.000000 0.000000
vt 0.612094 0.102140 0.000000
vt 0.586934 -0.201495 0.000000
vt 0.431691 -0.172823 0.000000
vt 0.545764 -0.295353 0.000000
vt 0.391183 -0.251398 0.000000
vt 0.489707 -0.381154 0.000000
vt 0.336536 -0.320887 0.000000
vt 0.420292 -0.456559 0.000000
vt 0.269726 -0.378778 0.000000
vt 0.339413 -0.519510 0.000000
vt 0.193168 -0.422979 0.000000
vt 0.249275 -0.568290 0.000000
vt 0.109628 -0.451892 0.000000
vt 0.152338 -0.601568 0.000000
vt 0.051245 -0.618438 0.000000
vt 0.022126 -0.464473 0.000000
vt -0.051245 -0.618438 0.000000
vt -0.066176 -0.460267 0.000000
vt -0.152338 -0.601568 0.000000
vt -0.152087 -0.439425 0.000000
vt -0.249275 -0.568290 0.000000
vt -0.232500 -0.402702 0.000000
vt -0.339413 -0.519510 0.000000
vt -0.304510 -0.351424 0.000000
vt -0.420292 -0.456559 0.000000
vt -0.365515 -0.287444 0.000000
vt -0.489707 -0.381154 0.000000
vt -0.545764 -0.295353 0.000000
vt -0.413308 -0.213075 0.000000
vt -0.586934 -0.201495 0.000000
vt -0.446164 -0.131006 0.000000
vt -0.612094 -0.102140 0.000000
vt -0.462894 -0.044201 0.000000
vt -0.620557 0.000000 0.000000
vt -0.462894 0.044201 0.000000
vt -0.612094 0.102140 0.000000
vt -0.446164 0.131006 0.000000
vt -0.586934 0.201495 0.000000
vt -0.413308 0.213075 0.000000
vt -0.545764 0.295353 0.000000
vt -0.365515 0.287444 0.000000
vt -0.489707 0.381154 0.000000
vt -0.420292 0.456559 0.000000
vt -0.304510 0.351424 0.000000
vt -0.339413 0.519510 0.000000
vt -0.232500 0.402702 0.000000
vt -0.249275 0.568290 0.000000
vt -0.152087 0.439425 0.000000
vt -0.152338 0.601568 0.000000
vt -0.066176 0.460267 0.000000
vt -0.051245 0.618438 0.000000
vt 0.022126 0.464473 0.000000
vt 0.051245 0.618438 0.000000
vt 0.109628 0.451892 0.000000
vt 0.152338 0.601568 0.000000
vt 0.249275 0.568290 0.000000
vt 0.193168 0.422979 0.000000
vt 0.339413 0.519510 0.000000
vt 0.269726 0.378778 0.000000
vt 0.420292 0.456559 0.000000
vt 0.336536 0.320887 0.000000
vt 0.489707 0.381154 0.000000
vt 0.391183 0.251398 0.000000
vt 0.545764 0.295353 0.000000
vt 0.431691 0.172823 0.000000
vt 0.586934 0.201495 0.000000
vt 0.456597 0.088002 0.000000
vn -0.981929 -0.000000 0.189251
vn -0.981929 -0.000000 0.189251
vn -1.000000 -0.000000 0.000000
vn -1.000000 -0.000000 0.000000
vn -0.981929 -0.000000 -0.189251
vn -0.981929 -0.000000 -0.189251
vn -0.928368 -0.000000 -0.371662
vn -0.928368 -0.000000 -0.371662
vn -0.841254 -0.000000 -0.540641
vn -0.841254 -0.000000 -0.540641
vn -0.723734 -0.000000 -0.690079
vn -0.723734 -0.000000 -0.690079
vn -0.580057 -0.000000 -0.814576
vn -0.580057 -0.000000 -0.814576
vn -0.415415 -0.000000 -0.909632
vn -0.415415 -0.000000 -0.909632
vn -0.235759 -0.000000 -0.971812
vn -0.235759 -0.000000 -0.971812
vn -0.047582 -0.000000 -0.998867
vn -0.047582 -0.000000 -0.998867
vn 0.142315 -0.000000 -0.989821
vn 0.142315 -0.000000 -0.989821
vn 0.327068 -0.000000 -0.945001
vn 0.327068 -0.000000 -0.945001
vn 0.500000 -0.000000 -0.866025
vn 0.500000 -0.000000 -0.866025
vn 0.654861 -0.000000 -0.755750
vn 0.654861 -0.000000 -0.755750
vn 0.786053 -0.000000 -0.618159
vn 0.786053 -0.000000 -0.618159
vn 0.888835 -0.000000 -0.458227
vn 0.888835 -0.000000 -0.458227
vn 0.959493 -0.000000 -0.281733
vn 0.959493 -0.000000 -0.281733
vn 0.995472 -0.000000 -0.095056
vn 0.995472 -0.000000 -0.095056
vn 0.995472 0.000000 0.095056
vn 0.995472 0.000000 0.095056
vn 0.959493 0.000000 0.281733
vn 0.959493 0.000000 0.281733
vn 0.888835 0.000000 0.458227
vn 0.888835 0.000000 0.458227
vn 0.786053 0.000000 0.618159
vn 0.786053 0.000000 0.618159
vn 0.654861 0.000000 0.755750
vn 0.654861 0.000000 0.755750
vn 0.500000 0.000000 0.866025
vn 0.500000 0.000000 0.866025
vn 0.327068 0.000000 0.945001
vn 0.327068 0.000000 0.945001
vn 0.142315 0.000000 0.989821
vn 0.142315 0.000000 0.989821
vn -0.047582 -0.000000 0.998867
vn -0.047582 -0.000000 0.998867
vn -0.235759 -0.000000 0.971812
vn -0.235759 -0.000000 0.971812
vn -0.415415 -0.000000 0.909632
vn -0.415415 -0.000000 0.909632
vn -0.580057 -0.000000 0.814576
vn -0.580057 -0.000000 0.814576
vn -0.723734 -0.000000 0.690079
vn -0.723734 -0.000000 0.690079
vn -0.841254 -0.000000 0.540641
vn -0.841254 -0.000000 0.540641
vn -0.928368 -0.000000 0.371662
vn -0.928368 -0.000000 0.371662
vn 0.000000 -1.000000 0.000000
vn 0.000000 -1.000000 0.000000
vn 0.000000 -1.000000 0.000000
vn 0.000000 -1.000000 0.000000
vn 0.000000 -1.000000 0.000000
vn 0.000000 -1.000000 0.000000
vn 0.000000 -1.000000 0.000000
vn 0.000000 -1.000000 0.000000
vn 0.000000 -1.000000 0.000000
vn 0.000000 -1.000000 0.000000
vn 0.000000 -1.000000 0.000000
vn 0.000000 -1.000000 0.000000
vn 0.000000 -1.000000 0.000000
vn 0.000000 -1.000000 0.000000
vn 0.000000 -1.000000 0.000000
vn 0.000000 -1.000000 0.000000
vn 0.000000 -1.000000 0.000000
vn 0.000000 -1.000000 0.000000
vn 0.000000 -1.000000 0.000000
vn 0.000000 -1.000000 0.000000
vn 0.000000 -1.000000 0.000000
vn 0.000000 -1.000000 0.000000
vn 0.000000 -1.000000 0.000000
vn 0.000000 -1.000000 0.000000
vn 0.000000 -1.000000 0.000000
vn 0.000000 -1.000000 0.000000
vn 0.000000 -1.000000 0.000000
vn 0.000000 -1.000000 0.000000
vn 0.000000 -1.000000 0.000000
vn 0.000000 -1.000000 0.000000
vn 0.000000 -1.000000 0.000000
vn 0.000000 -1.000000 0.000000
vn 0.000000 -1.000000 0.000000
vn -0.183750 -0.000000 -0.982973
vn -0.183750 -0.000000 -0.982973
vn -0.000000 -0.000000 -1.000000
vn -0.000000 -0.000000 -1.000000
vn 0.183750 0.000000 -0.982973
vn 0.183750 0.000000 -0.982973
vn 0.361242 0.000000 -0.932472
vn 0.361242 0.000000 -0.932472
vn 0.526432 0.000000 -0.850217
vn 0.526432 0.000000 -0.850217
vn 0.673696 0.000000 -0.739009
vn 0.673696 0.000000 -0.739009
vn 0.798017 0.000000 -0.602635
vn 0.798017 0.000000 -0.602635
vn 0.895163 0.000000 -0.445738
vn 0.895163 0.000000 -0.445738
vn 0.961826 0.000000 -0.273663
vn 0.961826 0.000000 -0.273663
vn 0.995734 0.000000 -0.092268
vn 0.995734 0.000000 -0.092268
vn 0.995734 0.000000 0.092268
vn 0.995734 0.000000 0.092268
vn 0.961826 0.000000 0.273663
vn 0.961826 0.000000 0.273663
vn 0.895163 0.000000 0.445738
vn 0.895163 0.000000 0.445738
vn 0.798017 0.000000 0.602635
vn 0.798017 0.000000 0.602635
vn 0.673696 0.000000 0.739009
vn 0.673696 0.000000 0.739009
vn 0.526432 0.000000 0.850217
vn 0.526432 0.000000 0.850217
vn 0.361242 0.000000 0.932472
vn 0.361242 0.000000 0.932472
vn 0.183750 0.000000 0.982973
vn 0.183750 0.000000 0.982973
vn 0.000000 0.000000 1.000000
vn 0.000000 0.000000 1.000000
vn -0.183750 0.000000 0.982973
vn -0.183750 0.000000 0.982973
vn -0.361242 0.000000 0.932472
vn -0.361242 0.000000 0.932472
vn -0.526432 0.000000 0.850217
vn -0.526432 0.000000 0.850217
vn -0.673696 0.000000 0.739009
vn -0.673696 0.000000 0.739009
vn -0.798017 0.000000 0.602635
vn -0.798017 0.000000 0.602635
vn -0.895163 0.000000 0.445738
vn -0.895163 0.000000 0.445738
vn -0.961826 0.000000 0.273663
vn -0.961826 0.000000 0.273663
vn -0.995734 0.000000 0.092268
vn -0.995734 0.000000 0.092268
vn -0.995734 -0.000000 -0.092268
vn -0.995734 -0.000000 -0.092268
vn -0.961826 -0.000000 -0.273663
vn -0.961826 -0.000000 -0.273663
vn -0.895163 -0.000000 -0.445738
vn -0.895163 -0.000000 -0.445738
vn -0.798017 -0.000000 -0.602635
vn -0.798017 -0.000000 -0.602635
vn -0.673696 -0.000000 -0.739009
vn -0.673696 -0.000000 -0.739009
vn -0.526432 -0.000000 -0.850217
vn -0.526432 -0.000000 -0.850217
vn -0.361242 -0.000000 -0.932472
vn -0.361242 -0.000000 -0.932472
vn -0.000000 1.000000 -0.000000
vn -0.000000 1.000000 -0.000000
vn -0.000000 1.000000 -0.000000
vn -0.000000 1.000000 -0.000000
vn -0.000000 1.000000 -0.000000
vn -0.000000 1.000000 -0.000000
vn -0.000000 1.000000 -0.000000
vn -0.000000 1.000000 -0.000000
vn -0.000000 1.000000 -0.000000
vn -0.000000 1.000000 -0.000000
vn -0.000000 1.000000 -0.000000
vn -0.000000 1.000000 -0.000000
vn -0.000000 1.000000 -0.000000
vn -0.000000 1.000000 -0.000000
vn -0.000000 1.000000 -0.000000
vn -0.000000 1.000000 -0.000000
vn -0.000000 1.000000 -0.000000
vn -0.000000 1.000000 -0.000000
vn -0.000000 1.000000 -0.000000
vn -0.000000 1.000000 -0.000000
vn -0.000000 1.000000 -0.000000
vn -0.000000 1.000000 -0.000000
vn -0.000000 1.000000 -0.000000
vn -0.000000 1.000000 -0.000000
vn -0.000000 1.000000 -0.000000
vn -0.000000 1.000000 -0.000000
vn -0.000000 1.000000 -0.000000
vn -0.000000 1.000000 -0.000000
vn -0.000000 1.000000 -0.000000
vn -0.000000 1.000000 -0.000000
vn -0.000000 1.000000 -0.000000
vn -0.000000 1.000000 -0.000000
vn -0.000000 1.000000 -0.000000
vn -0.000000 1.000000 -0.000000
vn -0.000000 1.000000 -0.000000
vn -0.000000 1.000000 -0.000000
vn -0.000000 1.000000 -0.000000
vn -0.000000 1.000000 -0.000000
vn -0.000000 1.000000 -0.000000
vn -0.000000 1.000000 -0.000000
vn -0.000000 1.000000 -0.000000
vn -0.000000 1.000000 -0.000000
vn -0.000000 1.000000 -0.000000
vn -0.000000 1.000000 -0.000000
vn -0.000000 1.000000 -0.000000
vn -0.000000 1.000000 -0.000000
vn -0.000000 1.000000 -0.000000
vn -0.000000 1.000000 -0.000000
vn -0.000000 1.000000 -0.000000
vn -0.000000 1.000000 -0.000000
vn -0.000000 1.000000 -0.000000
vn -0.000000 1.000000 -0.000000
vn -0.000000 1.000000 -0.000000
vn -0.000000 1.000000 -0.000000
vn -0.000000 1.000000 -0.000000
vn -0.000000 1.000000 -0.000000
vn -0.000000 1.000000 -0.000000
vn -0.000000 1.000000 -0.000000
vn -0.000000 1.000000 -0.000000
vn -0.000000 1.000000 -0.000000
vn -0.000000 1.000000 -0.000000
vn -0.000000 1.000000 -0.000000
vn -0.000000 1.000000 -0.000000
vn -0.000000 1.000000 -0.000000
vn -0.000000 1.000000 -0.000000
vn -0.000000 1.000000 -0.000000
vn -0.000000 1.000000 -0.000000
vn -0.000000 1.000000 -0.000000
vn -0.000000 1.000000 -0.000000
vn -0.000000 1.000000 -0.000000
vn -0.000000 1.000000 -0.000000
vn -0.000000 1.000000 -0.000000
vn -0.000000 1.000000 -0.000000
vn -0.000000 1.000000 -0.000000
vn -0.000000 1.000000 -0.000000
vn -0.000000 1.000000 -0.000000
vn -0.000000 1.000000 -0.000000
vn -0.000000 1.000000 -0.000000
vn -0.000000 1.000000 -0.000000
vn -0.000000 1.000000 -0.000000
vn -0.000000 1.000000 -0.000000
vn -0.000000 1.000000 -0.000000
vn -0.000000 1.000000 -0.000000
vn -0.000000 1.000000 -0.000000
vn -0.000000 1.000000 -0.000000
vn -0.000000 1.000000 -0.000000
vn -0.000000 1.000000 -0.000000
vn -0.000000 1.000000 -0.000000
vn -0.000000 1.000000 -0.000000
vn -0.000000 1.000000 -0.000000
vn -0.000000 1.000000 -0.000000
vn -0.000000 1.000000 -0.000000
vn -0.000000 1.000000 -0.000000
vn -0.000000 1.000000 -0.000000
vn -0.000000 1.000000 -0.000000
vn -0.000000 1.000000 -0.000000
vn -0.000000 1.000000 -0.000000
vn -0.000000 1.000000 -0.000000
vn -0.000000 1.000000 -0.000000
vn -0.000000 1.000000 -0.000000
vn -0.000000 1.000000 -0.000000
vn -0.000000 1.000000 -0.000000
vn -0.000000 1.000000 -0.000000
vn -0.000000 1.000000 -0.000000
vn -0.000000 1.000000 -0.000000
vn -0.000000 1.000000 -0.000000
vn -0.986361 0.000000 -0.164595
vn -0.986361 0.000000 -0.164595
vn -1.000000 0.000000 -0.000000
vn -1.000000 0.000000 -0.000000
vn -0.986361 -0.000000 0.164595
vn -0.986361 -0.000000 0.164595
vn -0.945817 -0.000000 0.324699
vn -0.945817 -0.000000 0.324699
vn -0.879474 -0.000000 0.475947
vn -0.879474 -0.000000 0.475947
vn -0.789141 -0.000000 0.614213
vn -0.789141 -0.000000 0.614213
vn -0.677282 -0.000000 0.735724
vn -0.677282 -0.000000 0.735724
vn -0.546948 -0.000000 0.837166
vn -0.546948 -0.000000 0.837166
vn -0.401695 -0.000000 0.915773
vn -0.401695 -0.000000 0.915773
vn -0.245485 -0.000000 0.969400
vn -0.245485 -0.000000 0.969400
vn -0.082579 -0.000000 0.996584
vn -0.082579 -0.000000 0.996584
vn 0.082579 -0.000000 0.996584
vn 0.082579 -0.000000 0.996584
vn 0.245485 -0.000000 0.969400
vn 0.245485 -0.000000 0.969400
vn 0.401695 -0.000000 0.915773
vn 0.401695 -0.000000 0.915773
vn 0.546948 -0.000000 0.837166
vn 0.546948 -0.000000 0.837166
vn 0.677282 -0.000000 0.735724
vn 0.677282 -0.000000 0.735724
vn 0.789141 -0.000000 0.614213
vn 0.789141 -0.000000 0.614213
vn 0.879474 -0.000000 0.475947
vn 0.879474 -0.000000 0.475947
vn 0.945817 -0.000000 0.324699
vn 0.945817 -0.000000 0.324699
vn 0.986361 -0.000000 0.164595
vn 0.986361 -0.000000 0.164595
vn 1.000000 -0.000000 -0.000000
vn 1.000000 -0.000000 -0.000000
vn 0.986361 -0.000000 -0.164595
vn 0.986361 -0.000000 -0.164595
vn 0.945817 -0.000000 -0.324699
vn 0.945817 -0.000000 -0.324699
vn 0.879474 -0.000000 -0.475947
vn 0.879474 -0.000000 -0.475947
vn 0.789141 -0.000000 -0.614213
vn 0.789141 -0.000000 -0.614213
vn 0.677282 -0.000000 -0.735724
vn 0.677282 -0.000000 -0.735724
vn 0.546948 -0.000000 -0.837166
vn 0.546948 -0.000000 -0.837166
vn 0.401695 -0.000000 -0.915773
vn 0.401695 -0.000000 -0.915773
vn 0.245485 -0.000000 -0.969400
vn 0.245485 -0.000000 -0.969400
vn 0.082579 -0.000000 -0.996584
vn 0.082579 -0.000000 -0.996584
vn -0.082579 0.000000 -0.996584
vn -0.082579 0.000000 -0.996584
vn -0.245485 0.000000 -0.969400
vn -0.245485 0.000000 -0.969400
vn -0.401695 0.000000 -0.915773
vn -0.401695 0.000000 -0.915773
vn -0.546948 0.000000 -0.837166
vn -0.546948 0.000000 -0.837166
vn -0.677282 0.000000 -0.735724
vn -0.677282 0.000000 -0.735724
vn -0.789141 0.000000 -0.614213
vn -0.789141 0.000000 -0.614213
vn -0.879474 0.000000 -0.475947
vn -0.879474 0.000000 -0.475947
vn -0.945817 0.000000 -0.324699
vn -0.945817 0.000000 -0.324699
vn -0.000000 -1.000000 -0.000000
vn -0.000000 -1.000000 -0.000000
vn -0.000000 -1.000000 -0.000000
vn -0.000000 -1.000000 -0.000000
vn -0.000000 -1.000000 -0.000000
vn -0.000000 -1.000000 -0.000000
vn -0.000000 -1.000000 -0.000000
vn -0.000000 -1.000000 -0.000000
vn -0.000000 -1.000000 -0.000000
vn -0.000000 -1.000000 -0.000000
vn -0.000000 -1.000000 -0.000000
vn -0.000000 -1.000000 -0.000000
vn -0.000000 -1.000000 -0.000000
vn -0.000000 -1.000000 -0.000000
vn -0.000000 -1.000000 -0.000000
vn -0.000000 -1.000000 -0.000000
vn -0.000000 -1.000000 -0.000000
vn -0.000000 -1.000000 -0.000000
vn -0.000000 -1.000000 -0.000000
vn -0.000000 -1.000000 -0.000000
vn -0.000000 -1.000000 -0.000000
vn -0.000000 -1.000000 -0.000000
vn -0.000000 -1.000000 -0.000000
vn -0.000000 -1.000000 -0.000000
vn -0.000000 -1.000000 -0.000000
vn -0.000000 -1.000000 -0.000000
vn -0.000000 -1.000000 -0.000000
vn -0.000000 -1.000000 -0.000000
vn -0.000000 -1.000000 -0.000000
vn -0.000000 -1.000000 -0.000000
vn -0.000000 -1.000000 -0.000000
vn -0.000000 -1.000000 -0.000000
vn -0.000000 -1.000000 -0.000000
vn -0.000000 -1.000000 -0.000000
vn -0.000000 -1.000000 -0.000000
vn -0.000000 -1.000000 -0.000000
vn -0.000000 -1.000000 -0.000000
vn -0.000000 -1.000000 -0.000000
vn -0.000000 -1.000000 -0.000000
vn -0.000000 -1.000000 -0.000000
vn -0.000000 -1.000000 -0.000000
vn -0.000000 -1.000000 -0.000000
vn -0.000000 -1.000000 -0.000000
vn -0.000000 -1.000000 -0.000000
vn -0.000000 -1.000000 -0.000000
vn -0.000000 -1.000000 -0.000000
vn -0.000000 -1.000000 -0.000000
vn -0.000000 -1.000000 -0.000000
vn -0.000000 -1.000000 -0.000000
vn -0.000000 -1.000000 -0.000000
vn -0.000000 -1.000000 -0.000000
vn -0.000000 -1.000000 -0.000000
vn -0.000000 -1.000000 -0.000000
vn -0.000000 -1.000000 -0.000000
vn -0.000000 -1.000000 -0.000000
vn -0.000000 -1.000000 -0.000000
vn -0.000000 -1.000000 -0.000000
vn -0.000000 -1.000000 -0.000000
vn -0.000000 -1.000000 -0.000000
vn -0.000000 -1.000000 -0.000000
vn -0.000000 -1.000000 -0.000000
vn -0.000000 -1.000000 -0.000000
vn -0.000000 -1.000000 -0.000000
vn -0.000000 -1.000000 -0.000000
vn -0.000000 -1.000000 -0.000000
vn -0.000000 -1.000000 -0.000000
vn -0.000000 -1.000000 -0.000000
vn -0.000000 -1.000000 -0.000000
vn -0.000000 -1.000000 -0.000000
vn -0.000000 -1.000000 -0.000000
vn -0.000000 -1.000000 -0.000000
usemtl Marble_(Translucent)
f 2/1/1 66/2/2 1/3/3
f 1/3/3 66/2/2 34/4/4
f 1/5/3 34/6/4 33/7/5
f 33/7/5 34/6/4 35/8/6
f 33/7/5 35/8/6 32/9/7
f 32/9/7 35/8/6 36/10/8
f 32/9/7 36/10/8 31/11/9
f 31/11/9 36/10/8 37/12/10
f 31/11/9 37/12/10 30/13/11
f 30/13/11 37/12/10 38/14/12
f 30/13/11 38/14/12 29/15/13
f 29/15/13 38/14/12 39/16/14
f 29/15/13 39/16/14 28/17/15
f 28/17/15 39/16/14 40/18/16
f 28/17/15 40/18/16 27/19/17
f 27/19/17 40/18/16 41/20/18
f 27/19/17 41/20/18 26/21/19
f 26/21/19 41/20/18 42/22/20
f 26/21/19 42/22/20 25/23/21
f 25/23/21 42/22/20 43/24/22
f 25/23/21 43/24/22 24/25/23
f 24/25/23 43/24/22 44/26/24
f 24/25/23 44/26/24 23/27/25
f 23/27/25 44/26/24 45/28/26
f 23/27/25 45/28/26 22/29/27
f 22/29/27 45/28/26 46/30/28
f 22/29/27 46/30/28 21/31/29
f 21/31/29 46/30/28 47/32/30
f 21/31/29 47/32/30 20/33/31
f 20/33/31 47/32/30 48/34/32
f 20/33/31 48/34/32 19/35/33
f 19/35/33 48/34/32 49/36/34
f 19/35/33 49/36/34 18/37/35
f 18/37/35 49/36/34 50/38/36
f 18/37/35 50/38/36 17/39/37
f 17/39/37 50/38/36 51/40/38
f 17/39/37 51/40/38 16/41/39
f 16/41/39 51/40/38 52/42/40
f 16/41/39 52/42/40 15/43/41
f 15/43/41 52/42/40 53/44/42
f 15/43/41 53/44/42 14/45/43
f 14/45/43 53/44/42 54/46/44
f 14/45/43 54/46/44 13/47/45
f 13/47/45 54/46/44 55/48/46
f 13/47/45 55/48/46 12/49/47
f 12/49/47 55/48/46 56/50/48
f 12/49/47 56/50/48 11/51/49
f 11/51/49 56/50/48 57/52/50
f 11/51/49 57/52/50 10/53/51
f 10/53/51 57/52/50 58/54/52
f 10/53/51 58/54/52 9/55/53
f 9/55/53 58/54/52 59/56/54
f 9/55/53 59/56/54 8/57/55
f 8/57/55 59/56/54 60/58/56
f 8/57/55 60/58/56 7/59/57
f 7/59/57 60/58/56 61/60/58
f 7/59/57 61/60/58 6/61/59
f 6/61/59 61/60/58 62/62/60
f 6/61/59 62/62/60 5/63/61
f 5/63/61 62/62/60 63/64/62
f 5/63/61 63/64/62 4/65/63
f 4/65/63 63/64/62 64/66/64
f 4/65/63 64/66/64 3/67/65
f 3/67/65 64/66/64 65/68/66
f 3/67/65 65/68/66 2/1/1
f 2/1/1 65/68/66 66/2/2
f 2/69/67 1/70/68 22/71/69
f 22/71/69 1/70/68 33/72/70
f 22/71/69 33/72/70 32/73/71
f 32/73/71 31/74/72 22/71/69
f 22/71/69 31/74/72 30/75/73
f 22/71/69 30/75/73 29/76/74
f 22/71/69 29/76/74 23/77/75
f 23/77/75 29/76/74 28/78/76
f 23/77/75 28/78/76 24/79/77
f 24/79/77 28/78/76 27/80/78
f 24/79/77 27/80/78 25/81/79
f 25/81/79 27/80/78 26/82/80
f 22/71/69 21/83/81 2/69/67
f 2/69/67 21/83/81 3/84/82
f 3/84/82 21/83/81 4/85/83
f 4/85/83 21/83/81 5/86/84
f 5/86/84 21/83/81 6/87/85
f 6/87/85 21/83/81 7/88/86
f 7/88/86 21/83/81 8/89/87
f 8/89/87 21/83/81 9/90/88
f 9/90/88 21/83/81 10/91/89
f 10/91/89 21/83/81 11/92/90
f 11/92/90 21/83/81 12/93/91
f 12/93/91 21/83/81 13/94/92
f 13/94/92 21/83/81 14/95/93
f 14/95/93 21/83/81 20/96/94
f 14/95/93 20/96/94 15/97/95
f 15/97/95 20/96/94 19/98/96
f 15/97/95 19/98/96 16/99/97
f 16/99/97 19/98/96 18/100/98
f 16/99/97 18/100/98 17/101/99
f 68/102/100 134/103/101 67/104/102
f 67/104/102 134/103/101 101/105/103
f 67/104/102 101/105/103 100/106/104
f 100/106/104 101/105/103 102/107/105
f 100/106/104 102/107/105 99/108/106
f 99/108/106 102/107/105 103/109/107
f 99/108/106 103/109/107 98/110/108
f 98/110/108 103/109/107 104/111/109
f 98/110/108 104/111/109 97/112/110
f 97/112/110 104/111/109 105/113/111
f 97/112/110 105/113/111 96/114/112
f 96/114/112 105/113/111 106/115/113
f 96/114/112 106/115/113 95/116/114
f 95/116/114 106/115/113 107/117/115
f 95/116/114 107/117/115 94/118/116
f 94/118/116 107/117/115 108/119/117
f 94/118/116 108/119/117 93/120/118
f 93/120/118 108/119/117 109/121/119
f 93/120/118 109/121/119 92/122/120
f 92/122/120 109/121/119 110/123/121
f 92/122/120 110/123/121 91/124/122
f 91/124/122 110/123/121 111/125/123
f 91/124/122 111/125/123 90/126/124
f 90/126/124 111/125/123 112/127/125
f 90/126/124 112/127/125 89/128/126
f 89/128/126 112/127/125 113/129/127
f 89/128/126 113/129/127 88/130/128
f 88/130/128 113/129/127 114/131/129
f 88/130/128 114/131/129 87/132/130
f 87/132/130 114/131/129 115/133/131
f 87/132/130 115/133/131 86/134/132
f 86/134/132 115/133/131 116/135/133
f 86/134/132 116/135/133 85/136/134
f 85/136/134 116/135/133 117/137/135
f 85/136/134 117/137/135 84/138/136
f 84/138/136 117/137/135 118/139/137
f 84/140/136 118/141/137 83/142/138
f 83/142/138 118/141/137 119/143/139
f 83/142/138 119/143/139 82/144/140
f 82/144/140 119/143/139 120/145/141
f 82/144/140 120/145/141 81/146/142
f 81/146/142 120/145/141 121/147/143
f 81/146/142 121/147/143 80/148/144
f 80/148/144 121/147/143 122/149/145
f 80/148/144 122/149/145 79/150/146
f 79/150/146 122/149/145 123/151/147
f 79/150/146 123/151/147 78/152/148
f 78/152/148 123/151/147 124/153/149
f 78/152/148 124/153/149 77/154/150
f 77/154/150 124/153/149 125/155/151
f 77/154/150 125/155/151 76/156/152
f 76/156/152 125/155/151 126/157/153
f 76/156/152 126/157/153 75/158/154
f 75/158/154 126/157/153 127/159/155
f 75/158/154 127/159/155 74/160/156
f 74/160/156 127/159/155 128/161/157
f 74/160/156 128/161/157 73/162/158
f 73/162/158 128/161/157 129/163/159
f 73/162/158 129/163/159 72/164/160
f 72/164/160 129/163/159 130/165/161
f 72/164/160 130/165/161 71/166/162
f 71/166/162 130/165/161 131/167/163
f 71/166/162 131/167/163 70/168/164
f 70/168/164 131/167/163 132/169/165
f 70/168/164 132/169/165 69/170/166
f 69/170/166 132/169/165 133/171/167
f 69/170/166 133/171/167 68/102/100
f 68/102/100 133/171/167 134/103/101
f 134/172/168 119/173/169 101/174/170
f 101/174/170 119/173/169 118/175/171
f 101/174/170 118/175/171 102/176/172
f 102/176/172 118/175/171 117/177/173
f 102/176/172 117/177/173 103/178/174
f 103/178/174 117/177/173 116/179/175
f 103/178/174 116/179/175 104/180/176
f 104/180/176 116/179/175 115/181/177
f 104/180/176 115/181/177 105/182/178
f 105/182/178 115/181/177 114/183/179
f 105/182/178 114/183/179 106/184/180
f 106/184/180 114/183/179 113/185/181
f 106/184/180 113/185/181 107/186/182
f 107/186/182 113/185/181 112/187/183
f 107/186/182 112/187/183 108/188/184
f 108/188/184 112/187/183 111/189/185
f 108/188/184 111/189/185 109/190/186
f 109/190/186 111/189/185 110/191/187
f 119/173/169 134/172/168 120/192/188
f 120/192/188 134/172/168 133/193/189
f 120/192/188 133/193/189 121/194/190
f 121/194/190 133/193/189 132/195/191
f 121/194/190 132/195/191 122/196/192
f 122/196/192 132/195/191 131/197/193
f 122/196/192 131/197/193 123/198/194
f 123/198/194 131/197/193 130/199/195
f 123/198/194 130/199/195 124/200/196
f 124/200/196 130/199/195 129/201/197
f 124/200/196 129/201/197 125/202/198
f 125/202/198 129/201/197 128/203/199
f 125/202/198 128/203/199 126/204/200
f 126/204/200 128/203/199 127/205/201
f 100/206/202 144/207/203 67/208/204
f 67/208/204 144/207/203 145/209/205
f 67/208/204 145/209/205 68/210/206
f 68/210/206 145/209/205 146/211/207
f 68/210/206 146/211/207 69/212/208
f 69/212/208 146/211/207 147/213/209
f 69/212/208 147/213/209 70/214/210
f 70/214/210 147/213/209 148/215/211
f 70/214/210 148/215/211 71/216/212
f 71/216/212 148/215/211 149/217/213
f 71/216/212 149/217/213 150/218/214
f 144/207/203 100/206/202 143/219/215
f 143/219/215 100/206/202 99/220/216
f 143/219/215 99/220/216 142/221/217
f 142/221/217 99/220/216 98/222/218
f 142/221/217 98/222/218 141/223/219
f 141/223/219 98/222/218 97/224/220
f 141/223/219 97/224/220 140/225/221
f 140/225/221 97/224/220 139/226/222
f 139/226/222 97/224/220 96/227/223
f 139/226/222 96/227/223 138/228/224
f 138/228/224 96/227/223 95/229/225
f 138/228/224 95/229/225 137/230/226
f 137/230/226 95/229/225 94/231/227
f 137/230/226 94/231/227 136/232/228
f 136/232/228 94/231/227 93/233/229
f 136/232/228 93/233/229 135/234/230
f 135/234/230 93/233/229 92/235/231
f 135/234/230 92/235/231 172/236/232
f 172/236/232 92/235/231 91/237/233
f 172/236/232 91/237/233 171/238/234
f 171/238/234 91/237/233 90/239/235
f 171/238/234 90/239/235 170/240/236
f 170/240/236 90/239/235 89/241/237
f 170/240/236 89/241/237 169/242/238
f 169/242/238 89/241/237 88/243/239
f 169/242/238 88/243/239 168/244/240
f 168/244/240 88/243/239 167/245/241
f 167/245/241 88/243/239 87/246/242
f 167/245/241 87/246/242 166/247/243
f 166/247/243 87/246/242 86/248/244
f 166/247/243 86/248/244 165/249/245
f 165/249/245 86/248/244 85/250/246
f 165/249/245 85/250/246 164/251/247
f 164/251/247 85/250/246 84/252/248
f 164/251/247 84/252/248 163/253/249
f 163/253/249 84/252/248 83/254/250
f 163/253/249 83/254/250 162/255/251
f 162/255/251 83/254/250 82/256/252
f 162/255/251 82/256/252 161/257/253
f 161/257/253 82/256/252 81/258/254
f 161/257/253 81/258/254 160/259/255
f 160/259/255 81/258/254 80/260/256
f 160/259/255 80/260/256 159/261/257
f 159/261/257 80/260/256 158/262/258
f 158/262/258 80/260/256 79/263/259
f 158/262/258 79/263/259 157/264/260
f 157/264/260 79/263/259 78/265/261
f 157/264/260 78/265/261 156/266/262
f 156/266/262 78/265/261 77/267/263
f 156/266/262 77/267/263 155/268/264
f 155/268/264 77/267/263 76/269/265
f 155/268/264 76/269/265 154/270/266
f 154/270/266 76/269/265 75/271/267
f 154/270/266 75/271/267 153/272/268
f 153/272/268 75/271/267 74/273/269
f 153/272/268 74/273/269 152/274/270
f 152/274/270 74/273/269 73/275/271
f 152/274/270 73/275/271 151/276/272
f 151/276/272 73/275/271 72/277/273
f 151/276/272 72/277/273 150/218/214
f 150/218/214 72/277/273 71/216/212
f 172/278/274 210/279/275 135/280/276
f 135/280/276 210/279/275 173/281/277
f 135/282/276 173/283/277 136/284/278
f 136/284/278 173/283/277 174/285/279
f 136/284/278 174/285/279 137/286/280
f 137/286/280 174/285/279 175/287/281
f 137/286/280 175/287/281 138/288/282
f 138/288/282 175/287/281 176/289/283
f 138/288/282 176/289/283 139/290/284
f 139/290/284 176/289/283 177/291/285
f 139/290/284 177/291/285 140/292/286
f 140/292/286 177/291/285 178/293/287
f 140/292/286 178/293/287 141/294/288
f 141/294/288 178/293/287 179/295/289
f 141/294/288 179/295/289 142/296/290
f 142/296/290 179/295/289 180/297/291
f 142/296/290 180/297/291 143/298/292
f 143/298/292 180/297/291 181/299/293
f 143/298/292 181/299/293 144/300/294
f 144/300/294 181/299/293 182/301/295
f 144/300/294 182/301/295 145/302/296
f 145/302/296 182/301/295 183/303/297
f 145/302/296 183/303/297 146/304/298
f 146/304/298 183/303/297 184/305/299
f 146/304/298 184/305/299 147/306/300
f 147/306/300 184/305/299 185/307/301
f 147/306/300 185/307/301 148/308/302
f 148/308/302 185/307/301 186/309/303
f 148/308/302 186/309/303 149/310/304
f 149/310/304 186/309/303 187/311/305
f 149/310/304 187/311/305 150/312/306
f 150/312/306 187/311/305 188/313/307
f 150/312/306 188/313/307 151/314/308
f 151/314/308 188/313/307 189/315/309
f 151/314/308 189/315/309 152/316/310
f 152/316/310 189/315/309 190/317/311
f 152/316/310 190/317/311 153/318/312
f 153/318/312 190/317/311 191/319/313
f 153/318/312 191/319/313 154/320/314
f 154/320/314 191/319/313 192/321/315
f 154/320/314 192/321/315 155/322/316
f 155/322/316 192/321/315 193/323/317
f 155/322/316 193/323/317 156/324/318
f 156/324/318 193/323/317 194/325/319
f 156/324/318 194/325/319 157/326/320
f 157/326/320 194/325/319 195/327/321
f 157/326/320 195/327/321 158/328/322
f 158/328/322 195/327/321 196/329/323
f 158/328/322 196/329/323 159/330/324
f 159/330/324 196/329/323 197/331/325
f 159/330/324 197/331/325 160/332/326
f 160/332/326 197/331/325 198/333/327
f 160/332/326 198/333/327 161/334/328
f 161/334/328 198/333/327 199/335/329
f 161/334/328 199/335/329 162/336/330
f 162/336/330 199/335/329 200/337/331
f 162/336/330 200/337/331 163/338/332
f 163/338/332 200/337/331 201/339/333
f 163/338/332 201/339/333 164/340/334
f 164/340/334 201/339/333 202/341/335
f 164/340/334 202/341/335 165/342/336
f 165/342/336 202/341/335 203/343/337
f 165/342/336 203/343/337 166/344/338
f 166/344/338 203/343/337 204/345/339
f 166/344/338 204/345/339 167/346/340
f 167/346/340 204/345/339 205/347/341
f 167/346/340 205/347/341 168/348/342
f 168/348/342 205/347/341 206/349/343
f 168/348/342 206/349/343 169/350/344
f 169/350/344 206/349/343 207/351/345
f 169/350/344 207/351/345 170/352/346
f 170/352/346 207/351/345 208/353/347
f 170/352/346 208/353/347 171/354/348
f 171/354/348 208/353/347 209/355/349
f 171/354/348 209/355/349 172/278/274
f 172/278/274 209/355/349 210/279/275
f 66/356/350 174/357/351 34/358/352
f 34/358/352 174/357/351 173/359/353
f 34/358/352 173/359/353 210/360/354
f 174/357/351 66/356/350 175/361/355
f 175/361/355 66/356/350 65/362/356
f 175/361/355 65/362/356 176/363/357
f 176/363/357 65/362/356 64/364/358
f 176/363/357 64/364/358 177/365/359
f 177/365/359 64/364/358 63/366/360
f 177/365/359 63/366/360 178/367/361
f 178/367/361 63/366/360 62/368/362
f 178/367/361 62/368/362 179/369/363
f 179/369/363 62/368/362 61/370/364
f 179/369/363 61/370/364 180/371/365
f 180/371/365 61/370/364 60/372/366
f 180/371/365 60/372/366 181/373/367
f 181/373/367 60/372/366 182/374/368
f 182/374/368 60/372/366 59/375/369
f 182/374/368 59/375/369 183/376/370
f 183/376/370 59/375/369 58/377/371
f 183/376/370 58/377/371 184/378/372
f 184/378/372 58/377/371 57/379/373
f 184/378/372 57/379/373 185/380/374
f 185/380/374 57/379/373 56/381/375
f 185/380/374 56/381/375 186/382/376
f 186/382/376 56/381/375 55/383/377
f 186/382/376 55/383/377 187/384/378
f 187/384/378 55/383/377 54/385/379
f 187/384/378 54/385/379 188/386/380
f 188/386/380 54/385/379 189/387/381
f 189/387/381 54/385/379 53/388/382
f 189/387/381 53/388/382 190/389/383
f 190/389/383 53/388/382 52/390/384
f 190/389/383 52/390/384 191/391/385
f 191/391/385 52/390/384 51/392/386
f 191/391/385 51/392/386 192/393/387
f 192/393/387 51/392/386 50/394/388
f 192/393/387 50/394/388 193/395/389
f 193/395/389 50/394/388 49/396/390
f 193/395/389 49/396/390 194/397/391
f 194/397/391 49/396/390 48/398/392
f 194/397/391 48/398/392 195/399/393
f 195/399/393 48/398/392 47/400/394
f 195/399/393 47/400/394 196/401/395
f 196/401/395 47/400/394 197/402/396
f 197/402/396 47/400/394 46/403/397
f 197/402/396 46/403/397 198/404/398
f 198/404/398 46/403/397 45/405/399
f 198/404/398 45/405/399 199/406/400
f 199/406/400 45/405/399 44/407/401
f 199/406/400 44/407/401 200/408/402
f 200/408/402 44/407/401 43/409/403
f 200/408/402 43/409/403 201/410/404
f 201/410/404 43/409/403 42/411/405
f 201/410/404 42/411/405 202/412/406
f 202/412/406 42/411/405 41/413/407
f 202/412/406 41/413/407 203/414/408
f 203/414/408 41/413/407 204/415/409
f 204/415/409 41/413/407 40/416/410
f 204/415/409 40/416/410 205/417/411
f 205/417/411 40/416/410 39/418/412
f 205/417/411 39/418/412 206/419/413
f 206/419/413 39/418/412 38/420/414
f 206/419/413 38/420/414 207/421/415
f 207/421/415 38/420/414 37/422/416
f 207/421/415 37/422/416 208/423/417
f 208/423/417 37/422/416 36/424/418
f 208/423/417 36/424/418 209/425/419
f 209/425/419 36/424/418 35/426/420
f 209/425/419 35/426/420 210/360/354
f 210/360/354 35/426/420 34/358/352
# 210 vertices
# 426 texture params
# 420 normals
# 416 facets

# 1 groups
